<svg width="100%" height="100%" viewBox="0 0 32 32" fill="none" xmlns="http://www.w3.org/2000/svg">
<path d="M28 2C29.1046 2 30 2.89543 30 4V28C30 29.1046 29.1046 30 28 30H4C2.89543 30 2 29.1046 2 28V4C2 2.89543 2.89543 2 4 2H28ZM4 0C1.79086 0 0 1.79086 0 4V28C0 30.2091 1.79086 32 4 32H28C30.2091 32 32 30.2091 32 28V4C32 1.79086 30.2091 0 28 0H4Z" fill="white"/>
<path d="M13.7071 9.29289C14.0976 9.68342 14.0976 10.3166 13.7071 10.7071L8.41421 16L13.7071 21.2929C14.0976 21.6834 14.0976 22.3166 13.7071 22.7071C13.3166 23.0976 12.6834 23.0976 12.2929 22.7071L6.29289 16.7071C5.90237 16.3166 5.90237 15.6834 6.29289 15.2929L12.2929 9.29289C12.6834 8.90237 13.3166 8.90237 13.7071 9.29289Z" fill="white"/>
<path d="M18.2929 9.29289C17.9024 9.68342 17.9024 10.3166 18.2929 10.7071L23.5858 16L18.2929 21.2929C17.9024 21.6834 17.9024 22.3166 18.2929 22.7071C18.6834 23.0976 19.3166 23.0976 19.7071 22.7071L25.7071 16.7071C26.0976 16.3166 26.0976 15.6834 25.7071 15.2929L19.7071 9.29289C19.3166 8.90237 18.6834 8.90237 18.2929 9.29289Z" fill="white"/>
</svg>
