<svg width="114" height="23" viewBox="0 0 114 23" fill="none" xmlns="http://www.w3.org/2000/svg">
<path d="M11.488 10.184H22.38C22.38 11.304 22.3333 12.3213 22.24 13.236C22.1467 14.1507 21.96 15 21.68 15.784C21.288 16.8853 20.756 17.8653 20.084 18.724C19.412 19.564 18.6187 20.2733 17.704 20.852C16.808 21.412 15.8187 21.8413 14.736 22.14C13.6533 22.4387 12.5147 22.588 11.32 22.588C9.67733 22.588 8.17467 22.3173 6.812 21.776C5.468 21.2347 4.31067 20.4787 3.34 19.508C2.36933 18.5187 1.61333 17.3427 1.072 15.98C0.530667 14.5987 0.26 13.0773 0.26 11.416C0.26 9.77333 0.521333 8.27067 1.044 6.908C1.58533 5.52667 2.34133 4.35067 3.312 3.38C4.30133 2.40933 5.48667 1.65333 6.868 1.112C8.24933 0.570666 9.78933 0.299999 11.488 0.299999C13.6907 0.299999 15.6227 0.775999 17.284 1.728C18.9453 2.68 20.2613 4.15467 21.232 6.152L16.024 8.308C15.5387 7.15067 14.904 6.32 14.12 5.816C13.3547 5.312 12.4773 5.06 11.488 5.06C10.6667 5.06 9.92 5.21867 9.248 5.536C8.576 5.83467 7.99733 6.27333 7.512 6.852C7.04533 7.412 6.672 8.09333 6.392 8.896C6.13067 9.69867 6 10.5947 6 11.584C6 12.48 6.112 13.3107 6.336 14.076C6.57867 14.8413 6.93333 15.504 7.4 16.064C7.86667 16.624 8.44533 17.0627 9.136 17.38C9.82667 17.6787 10.6293 17.828 11.544 17.828C12.0853 17.828 12.608 17.772 13.112 17.66C13.616 17.5293 14.064 17.3333 14.456 17.072C14.8667 16.792 15.2027 16.4373 15.464 16.008C15.7253 15.5787 15.9027 15.056 15.996 14.44H11.488V10.184ZM29.5502 11.864L21.8502 0.888H28.4022L32.3222 6.656L36.2142 0.888H42.7662L35.0382 11.864V22H29.5502V11.864ZM50.1766 0.888V12.368C50.1766 12.984 50.1952 13.6187 50.2326 14.272C50.2886 14.9067 50.4286 15.4853 50.6526 16.008C50.8952 16.5307 51.2686 16.96 51.7726 17.296C52.2766 17.6133 52.9859 17.772 53.9006 17.772C54.8152 17.772 55.5152 17.6133 56.0006 17.296C56.5046 16.96 56.8779 16.5307 57.1206 16.008C57.3632 15.4853 57.5032 14.9067 57.5406 14.272C57.5966 13.6187 57.6246 12.984 57.6246 12.368V0.888H63.0846V13.124C63.0846 16.4093 62.3286 18.808 60.8166 20.32C59.3232 21.832 57.0179 22.588 53.9006 22.588C50.7832 22.588 48.4686 21.832 46.9566 20.32C45.4446 18.808 44.6886 16.4093 44.6886 13.124V0.888H50.1766ZM77.9086 0.888V15.532C77.9086 16.148 77.8713 16.7173 77.7966 17.24C77.7406 17.7627 77.6379 18.2107 77.4886 18.584C77.2459 19.1813 76.9099 19.732 76.4806 20.236C76.0699 20.7213 75.5846 21.1413 75.0246 21.496C74.4646 21.832 73.8393 22.0933 73.1486 22.28C72.4766 22.4853 71.7673 22.588 71.0206 22.588C68.7619 22.588 66.9233 21.552 65.5046 19.48L69.0886 15.812C69.1819 16.4467 69.3873 16.9507 69.7046 17.324C70.0219 17.6973 70.4139 17.884 70.8806 17.884C71.9073 17.884 72.4206 17.072 72.4206 15.448V0.888H77.9086ZM87.8563 0.888V22H82.3683V0.888H87.8563ZM92.2667 22V0.888H97.7547L107.891 13.796V0.888H113.351V22H107.891L97.7547 9.092V22H92.2667Z" fill="url(#paint0_linear_828_3430)"/>
<defs>
<linearGradient id="paint0_linear_828_3430" x1="114.83" y1="18.4375" x2="32.9619" y2="7.78643" gradientUnits="userSpaceOnUse">
<stop stop-color="#5F6366"/>
<stop offset="1"/>
</linearGradient>
</defs>
</svg>
