<svg width="100%" height="100%" viewBox="0 0 32 32" fill="none" xmlns="http://www.w3.org/2000/svg">
<path d="M22 12C22 15.3137 19.3137 18 16 18C12.6863 18 10 15.3137 10 12C10 8.68629 12.6863 6 16 6C19.3137 6 22 8.68629 22 12Z" fill="white"/>
<path d="M4 0C1.79086 0 0 1.79086 0 4V28C0 30.2091 1.79086 32 4 32H28C30.2091 32 32 30.2091 32 28V4C32 1.79086 30.2091 0 28 0H4ZM28 2C29.1046 2 30 2.89543 30 4V28C30 29.1046 29.1046 30 28 30V28C28 26 26 20 16 20C6 20 4 26 4 28V30C2.89543 30 2 29.1046 2 28V4C2 2.89543 2.89543 2 4 2H28Z" fill="white"/>
</svg>
